<svg width="16" height="16" viewBox="0 0 16 16" fill="none" xmlns="http://www.w3.org/2000/svg">
<path d="M6.73231 15.1745C6.52837 15.1725 6.32787 15.1217 6.14755 15.0264C5.94727 14.9211 5.77963 14.7629 5.66281 14.5692C5.54599 14.3754 5.48443 14.1533 5.48482 13.927V7.84546L0.354481 2.20833C0.19419 2.02813 0.0892014 1.80557 0.0520739 1.56727C0.0149463 1.32897 0.0472515 1.08502 0.145125 0.864602C0.242999 0.64418 0.402298 0.456619 0.603968 0.324352C0.805638 0.192086 1.04114 0.120714 1.28231 0.118774H14.6773C14.9185 0.120714 15.154 0.192086 15.3557 0.324352C15.5573 0.456619 15.7166 0.64418 15.8145 0.864602C15.9124 1.08502 15.9447 1.32897 15.9075 1.56727C15.8704 1.80557 15.7654 2.02813 15.6051 2.20833L10.4748 7.84546V12.2585C10.4755 12.4636 10.4254 12.6658 10.3287 12.8468C10.2321 13.0277 10.0921 13.1819 9.92123 13.2955L7.42623 14.964C7.22087 15.1013 6.97936 15.1746 6.73231 15.1745ZM1.28231 1.36627L6.40485 7.0034C6.61473 7.23372 6.73145 7.53386 6.73231 7.84546V13.927L9.22731 12.2585V7.84546C9.22817 7.53386 9.34489 7.23372 9.55478 7.0034L14.6773 1.36627H1.28231Z" fill="#BAB8B9"/>
</svg>
