<svg width="22" height="6" viewBox="0 0 22 6" fill="none" xmlns="http://www.w3.org/2000/svg">
<path d="M9.75 3C9.75 3.69036 10.3096 4.25 11 4.25C11.6904 4.25 12.25 3.69036 12.25 3C12.25 2.30964 11.6904 1.75 11 1.75C10.3096 1.75 9.75 2.30964 9.75 3Z" stroke="#333333" stroke-width="1.875" stroke-linecap="round" stroke-linejoin="round"/>
<path d="M18.5 3C18.5 3.69036 19.0596 4.25 19.75 4.25C20.4404 4.25 21 3.69036 21 3C21 2.30964 20.4404 1.75 19.75 1.75C19.0596 1.75 18.5 2.30964 18.5 3Z" stroke="#333333" stroke-width="1.875" stroke-linecap="round" stroke-linejoin="round"/>
<path d="M1 3C1 3.69036 1.55964 4.25 2.25 4.25C2.94036 4.25 3.5 3.69036 3.5 3C3.5 2.30964 2.94036 1.75 2.25 1.75C1.55964 1.75 1 2.30964 1 3Z" stroke="#333333" stroke-width="1.875" stroke-linecap="round" stroke-linejoin="round"/>
</svg>
