<svg width="13" height="13" viewBox="0 0 13 13" fill="none" xmlns="http://www.w3.org/2000/svg">
<g clip-path="url(#clip0_212_3275)">
<path d="M5.41675 7.04173C5.64937 7.35272 5.94615 7.61004 6.28696 7.79624C6.62778 7.98244 7.00465 8.09317 7.39202 8.12091C7.77939 8.14865 8.16819 8.09276 8.53206 7.95703C8.89593 7.82129 9.22635 7.60889 9.50092 7.33423L11.1259 5.70923C11.6193 5.19843 11.8922 4.5143 11.8861 3.80418C11.8799 3.09407 11.5951 2.41478 11.0929 1.91264C10.5908 1.41049 9.91149 1.12566 9.20138 1.11949C8.49126 1.11332 7.80713 1.3863 7.29633 1.87965L6.36466 2.8059" stroke="#CECECE" stroke-width="1.08333" stroke-linecap="round" stroke-linejoin="round"/>
<path d="M7.5832 5.95841C7.35058 5.64743 7.0538 5.39011 6.71298 5.20391C6.37217 5.0177 5.9953 4.90698 5.60793 4.87923C5.22056 4.85149 4.83175 4.90738 4.46789 5.04312C4.10402 5.17885 3.77359 5.39125 3.49903 5.66591L1.87403 7.29091C1.38069 7.80171 1.1077 8.48584 1.11387 9.19596C1.12004 9.90608 1.40488 10.5854 1.90702 11.0875C2.40917 11.5897 3.08845 11.8745 3.79857 11.8807C4.50869 11.8868 5.19282 11.6138 5.70361 11.1205L6.62986 10.1942" stroke="#CECECE" stroke-width="1.08333" stroke-linecap="round" stroke-linejoin="round"/>
</g>
<defs>
<clipPath id="clip0_212_3275">
<rect width="13" height="13" fill="white"/>
</clipPath>
</defs>
</svg>
