<svg width="17" height="17" viewBox="0 0 17 17" fill="none" xmlns="http://www.w3.org/2000/svg">
<path d="M16.1502 4.67485C16.1502 5.68931 15.7472 6.66221 15.0299 7.37954C14.3126 8.09686 13.3396 8.49985 12.3252 8.49985C11.3107 8.49985 10.3378 8.09686 9.62051 7.37954C8.90319 6.66221 8.5002 5.68931 8.5002 4.67485C8.5002 3.6604 8.90319 2.6875 9.62051 1.97017C10.3378 1.25284 11.3107 0.849854 12.3252 0.849854C13.3396 0.849854 14.3126 1.25284 15.0299 1.97017C15.7472 2.6875 16.1502 3.6604 16.1502 4.67485V4.67485ZM13.9011 3.70075C13.9809 3.62095 14.0257 3.51271 14.0257 3.39985C14.0257 3.28699 13.9809 3.17876 13.9011 3.09895C13.8213 3.01915 13.7131 2.97432 13.6002 2.97432C13.4873 2.97432 13.3791 3.01915 13.2993 3.09895L12.3252 4.0739L11.3511 3.09895C11.2713 3.01915 11.1631 2.97432 11.0502 2.97432C10.9373 2.97432 10.8291 3.01915 10.7493 3.09895C10.6695 3.17876 10.6247 3.28699 10.6247 3.39985C10.6247 3.51271 10.6695 3.62095 10.7493 3.70075L11.7242 4.67485L10.7493 5.64895C10.6695 5.72876 10.6247 5.83699 10.6247 5.94985C10.6247 6.06271 10.6695 6.17095 10.7493 6.25075C10.8291 6.33056 10.9373 6.37539 11.0502 6.37539C11.1631 6.37539 11.2713 6.33056 11.3511 6.25075L12.3252 5.2758L13.2993 6.25075C13.3388 6.29027 13.3857 6.32161 13.4373 6.343C13.489 6.36438 13.5443 6.37539 13.6002 6.37539C13.6561 6.37539 13.7114 6.36438 13.763 6.343C13.8147 6.32161 13.8616 6.29027 13.9011 6.25075C13.9406 6.21124 13.972 6.16433 13.9933 6.1127C14.0147 6.06107 14.0257 6.00574 14.0257 5.94985C14.0257 5.89397 14.0147 5.83864 13.9933 5.78701C13.972 5.73538 13.9406 5.68847 13.9011 5.64895L12.9261 4.67485L13.9011 3.70075ZM14.4502 12.3249V8.83985C14.753 8.68513 15.038 8.49787 15.3002 8.2814V12.3249C15.3002 12.8884 15.0763 13.4289 14.6778 13.8275C14.2793 14.226 13.7388 14.4499 13.1752 14.4499H3.8252C3.26161 14.4499 2.72111 14.226 2.32259 13.8275C1.92408 13.4289 1.7002 12.8884 1.7002 12.3249V5.52485C1.7002 4.96127 1.92408 4.42077 2.32259 4.02225C2.72111 3.62374 3.26161 3.39985 3.8252 3.39985H7.82615C7.74749 3.6777 7.69485 3.96226 7.6689 4.24985H3.8252C3.48704 4.24985 3.16274 4.38418 2.92363 4.62329C2.68453 4.8624 2.5502 5.1867 2.5502 5.52485V5.78155L8.5002 9.28185L9.72505 8.56105C10.0013 8.7455 10.2979 8.9019 10.6116 9.026L8.7161 10.1412C8.66188 10.173 8.60129 10.1924 8.53867 10.198C8.47606 10.2036 8.41298 10.1952 8.354 10.1735L8.2843 10.1412L2.5502 6.7684V12.3249C2.5502 12.663 2.68453 12.9873 2.92363 13.2264C3.16274 13.4655 3.48704 13.5999 3.8252 13.5999H13.1752C13.5133 13.5999 13.8376 13.4655 14.0768 13.2264C14.3159 12.9873 14.4502 12.663 14.4502 12.3249V12.3249Z" fill="#DEDEDE"/>
</svg>
