<svg width="21" height="21" viewBox="0 0 21 21" fill="none" xmlns="http://www.w3.org/2000/svg">
<path d="M18.1169 13.5724C17.5735 14.8575 16.7236 15.9899 15.6414 16.8706C14.5593 17.7513 13.2778 18.3535 11.9092 18.6246C10.5405 18.8957 9.1263 18.8274 7.79014 18.4256C6.45399 18.0239 5.23659 17.3009 4.24439 16.32C3.25218 15.339 2.51538 14.13 2.09839 12.7985C1.68141 11.467 1.59694 10.0537 1.85236 8.68199C2.10779 7.31033 2.69534 6.02211 3.56364 4.92998C4.43194 3.83784 5.55456 2.97503 6.83335 2.41699" stroke="#BAB8B9" stroke-width="1.20267" stroke-linecap="round" stroke-linejoin="round"/>
<path d="M18.7917 10.2499C18.7917 9.12821 18.5707 8.01749 18.1415 6.98116C17.7122 5.94484 17.083 5.00322 16.2899 4.21005C15.4967 3.41688 14.5551 2.78771 13.5188 2.35845C12.4824 1.92919 11.3717 1.70825 10.25 1.70825V10.2499H18.7917Z" stroke="#BAB8B9" stroke-width="1.20267" stroke-linecap="round" stroke-linejoin="round"/>
</svg>
