<svg width="16" height="15" viewBox="0 0 16 15" fill="none" xmlns="http://www.w3.org/2000/svg">
<path d="M14.2657 6.90632L8.15092 12.6501C7.4018 13.3537 6.38579 13.749 5.32639 13.749C4.26699 13.749 3.25098 13.3537 2.50187 12.6501C1.75276 11.9464 1.33191 10.9921 1.33191 9.99695C1.33191 9.00183 1.75276 8.04747 2.50187 7.34382L8.61668 1.60007C9.11609 1.13097 9.79343 0.867432 10.4997 0.867432C11.206 0.867432 11.8833 1.13097 12.3827 1.60007C12.8821 2.06917 13.1627 2.70541 13.1627 3.36882C13.1627 4.03223 12.8821 4.66847 12.3827 5.13757L6.26124 10.8813C6.01154 11.1159 5.67287 11.2476 5.31974 11.2476C4.9666 11.2476 4.62793 11.1159 4.37823 10.8813C4.12852 10.6468 3.98824 10.3287 3.98824 9.99695C3.98824 9.66524 4.12852 9.34712 4.37823 9.11257L10.0273 3.81257" stroke="white" stroke-width="0.9375" stroke-linecap="round" stroke-linejoin="round"/>
</svg>
