<svg width="16" height="18" viewBox="0 0 16 18" fill="none" xmlns="http://www.w3.org/2000/svg">
<path d="M3.91211 5.46393C3.91211 5.77752 4.03668 6.07827 4.25843 6.30001C4.48017 6.52176 4.78092 6.64633 5.09451 6.64633C5.40811 6.64633 5.70886 6.52176 5.9306 6.30001C6.15234 6.07827 6.27692 5.77752 6.27692 5.46393C6.27692 5.15034 6.15234 4.84959 5.9306 4.62784C5.70886 4.4061 5.40811 4.28152 5.09451 4.28152C4.78092 4.28152 4.48017 4.4061 4.25843 4.62784C4.03668 4.84959 3.91211 5.15034 3.91211 5.46393ZM14.7902 0.261353H1.38965C1.04084 0.261353 0.759033 0.543159 0.759033 0.891968V13.8984C0.759033 14.2472 1.04084 14.529 1.38965 14.529H14.7902C15.139 14.529 15.4208 14.2472 15.4208 13.8984V0.891968C15.4208 0.543159 15.139 0.261353 14.7902 0.261353ZM14.1596 13.2678H2.02026V1.52258H14.1596V13.2678ZM9.90295 5.46393C9.90295 5.77752 10.0275 6.07827 10.2493 6.30001C10.471 6.52176 10.7718 6.64633 11.0854 6.64633C11.399 6.64633 11.6997 6.52176 11.9214 6.30001C12.1432 6.07827 12.2678 5.77752 12.2678 5.46393C12.2678 5.15034 12.1432 4.84959 11.9214 4.62784C11.6997 4.4061 11.399 4.28152 11.0854 4.28152C10.7718 4.28152 10.471 4.4061 10.2493 4.62784C10.0275 4.84959 9.90295 5.15034 9.90295 5.46393ZM14.8336 16.4209H1.34629C1.02113 16.4209 0.759033 16.7027 0.759033 17.0515V17.7609C0.759033 17.8476 0.824065 17.9186 0.904863 17.9186H15.273C15.3538 17.9186 15.4189 17.8476 15.4189 17.7609V17.0515C15.4208 16.7027 15.1587 16.4209 14.8336 16.4209V16.4209ZM11.0854 9.01114H5.09451C5.0078 9.01114 4.93686 9.08208 4.93686 9.16879V10.3512C4.93686 10.4379 5.0078 10.5089 5.09451 10.5089H11.0854C11.1721 10.5089 11.243 10.4379 11.243 10.3512V9.16879C11.243 9.08208 11.1721 9.01114 11.0854 9.01114Z" fill="#BAB8B9"/>
</svg>
