<svg width="16" height="16" viewBox="0 0 16 16" fill="none" xmlns="http://www.w3.org/2000/svg">
<path fill-rule="evenodd" clip-rule="evenodd" d="M2.99804 5.58C3.00827 4.12426 3.59007 2.73081 4.61804 1.7L3.90804 1C3.30334 1.59963 2.82337 2.31307 2.49582 3.09915C2.16827 3.88524 1.99963 4.7284 1.99963 5.58C1.99963 6.4316 2.16827 7.27476 2.49582 8.06085C2.82337 8.84693 3.30334 9.56037 3.90804 10.16L4.61804 9.46C3.59007 8.42919 3.00827 7.03574 2.99804 5.58ZM4.05804 5.58C4.05546 6.16973 4.17092 6.75401 4.39761 7.29843C4.62431 7.84284 4.95766 8.33639 5.37804 8.75L6.08804 8.04C5.75937 7.72376 5.50049 7.34225 5.32804 6.92C5.15064 6.49728 5.05928 6.04344 5.05928 5.585C5.05928 5.12656 5.15064 4.67272 5.32804 4.25C5.49791 3.82346 5.75704 3.43818 6.08804 3.12L5.37804 2.41C4.95947 2.82496 4.6273 3.31876 4.40073 3.86287C4.17416 4.40698 4.05768 4.9906 4.05804 5.58ZM11.708 8.79L10.998 8.08C11.328 7.76 11.588 7.376 11.758 6.95C11.9355 6.52729 12.0269 6.07344 12.0269 5.615C12.0269 5.15655 11.9355 4.70271 11.758 4.28C11.5882 3.85346 11.329 3.46818 10.998 3.15L11.708 2.45C12.1261 2.86528 12.4579 3.35916 12.6844 3.90321C12.9108 4.44725 13.0274 5.03072 13.0274 5.62C13.0274 6.20928 12.9108 6.79275 12.6844 7.33679C12.4579 7.88084 12.1261 8.37472 11.708 8.79ZM13.068 1L12.358 1.71C12.8714 2.21529 13.2792 2.81769 13.5575 3.4821C13.8358 4.14651 13.9791 4.85966 13.9791 5.58C13.9791 6.30034 13.8358 7.01349 13.5575 7.6779C13.2792 8.34231 12.8714 8.94471 12.358 9.45L13.068 10.16C13.6727 9.56037 14.1527 8.84693 14.4803 8.06085C14.8078 7.27476 14.9764 6.4316 14.9764 5.58C14.9764 4.7284 14.8078 3.88524 14.4803 3.09915C14.1527 2.31307 13.6727 1.59963 13.068 1ZM9.99304 5.43C10.0271 5.77517 9.94055 6.12148 9.74804 6.41C9.66503 6.49451 9.57467 6.57148 9.47804 6.64L12.918 14.37L11.998 14.77L11.228 13.04H5.68804L4.91804 14.77L3.99804 14.37L7.43804 6.64C7.23062 6.42974 7.08895 6.16361 7.03034 5.87414C6.97174 5.58466 6.99873 5.28438 7.10804 5.01C7.22501 4.73394 7.41953 4.49774 7.66804 4.33C7.88348 4.18631 8.13245 4.10084 8.39072 4.08191C8.64899 4.06299 8.90776 4.11125 9.14185 4.222C9.37594 4.33275 9.57736 4.50222 9.72652 4.71391C9.87569 4.9256 9.9675 5.1723 9.99304 5.43ZM8.39804 5.09C8.30324 5.11233 8.21662 5.16084 8.14804 5.23C8.0943 5.29348 8.05658 5.36893 8.03804 5.45C8.00814 5.54435 8.00814 5.64565 8.03804 5.74C8.07804 5.83 8.14004 5.91 8.21804 5.97C8.30228 6.0218 8.39914 6.04948 8.49804 6.05C8.62984 6.04744 8.75554 5.99394 8.84876 5.90072C8.94198 5.8075 8.99548 5.68181 8.99804 5.55C8.99751 5.4511 8.96984 5.35425 8.91804 5.27C8.85798 5.19136 8.7788 5.1294 8.68804 5.09C8.59368 5.0601 8.49239 5.0601 8.39804 5.09ZM8.62804 7.14H8.35804L7.48804 9.08H9.48804L8.62804 7.14ZM10.828 12.08L9.93804 10.08H7.05804L6.16804 12.08H10.828Z" fill="#DEDEDE"/>
</svg>
