<svg width="12" height="12" viewBox="0 0 12 12" fill="none" xmlns="http://www.w3.org/2000/svg">
<rect width="12" height="12" fill="white"/>
<path d="M1.5 3H2.5H10.5" stroke="#D65745" stroke-width="0.75" stroke-linecap="round" stroke-linejoin="round"/>
<path d="M9.5 3.00012V10.0001C9.5 10.2653 9.39464 10.5197 9.20711 10.7072C9.01957 10.8948 8.76522 11.0001 8.5 11.0001H3.5C3.23478 11.0001 2.98043 10.8948 2.79289 10.7072C2.60536 10.5197 2.5 10.2653 2.5 10.0001V3.00012H9.5ZM4 3.00012V2.00012C4 1.73491 4.10536 1.48055 4.29289 1.29302C4.48043 1.10548 4.73478 1.00012 5 1.00012H7C7.26522 1.00012 7.51957 1.10548 7.70711 1.29302C7.89464 1.48055 8 1.73491 8 2.00012V3.00012" fill="#D65745"/>
<path d="M4 3.00012V2.00012C4 1.73491 4.10536 1.48055 4.29289 1.29302C4.48043 1.10548 4.73478 1.00012 5 1.00012H7C7.26522 1.00012 7.51957 1.10548 7.70711 1.29302C7.89464 1.48055 8 1.73491 8 2.00012V3.00012M9.5 3.00012V10.0001C9.5 10.2653 9.39464 10.5197 9.20711 10.7072C9.01957 10.8948 8.76522 11.0001 8.5 11.0001H3.5C3.23478 11.0001 2.98043 10.8948 2.79289 10.7072C2.60536 10.5197 2.5 10.2653 2.5 10.0001V3.00012H9.5Z" stroke="#D65745" stroke-width="0.75" stroke-linecap="round" stroke-linejoin="round"/>
<path d="M5 5.50012V8.50012" stroke="#D65745" stroke-width="0.75" stroke-linecap="round" stroke-linejoin="round"/>
<path d="M7 5.50012V8.50012" stroke="#D65745" stroke-width="0.75" stroke-linecap="round" stroke-linejoin="round"/>
</svg>
