<svg width="5" height="22" viewBox="0 0 5 22" fill="none" xmlns="http://www.w3.org/2000/svg">
<path d="M2.25 9.75C1.55964 9.75 1 10.3096 1 11C1 11.6904 1.55964 12.25 2.25 12.25C2.94036 12.25 3.5 11.6904 3.5 11C3.5 10.3096 2.94036 9.75 2.25 9.75Z" stroke="white" stroke-width="1.875" stroke-linecap="round" stroke-linejoin="round"/>
<path d="M2.25 18.5C1.55964 18.5 1 19.0596 1 19.75C1 20.4404 1.55964 21 2.25 21C2.94036 21 3.5 20.4404 3.5 19.75C3.5 19.0596 2.94036 18.5 2.25 18.5Z" stroke="white" stroke-width="1.875" stroke-linecap="round" stroke-linejoin="round"/>
<path d="M2.25 1C1.55964 1 1 1.55964 1 2.25C1 2.94036 1.55964 3.5 2.25 3.5C2.94036 3.5 3.5 2.94036 3.5 2.25C3.5 1.55964 2.94036 1 2.25 1Z" stroke="white" stroke-width="1.875" stroke-linecap="round" stroke-linejoin="round"/>
</svg>
